<svg xmlns="http://www.w3.org/2000/svg" viewBox="0 0 176 57"><g fill="none" fill-rule="evenodd"><path fill="#000" d="M0 0h176v57H0z"/><path d="M35.73 28.944a7.296 7.296 0 0 1 3.497-6.128 7.526 7.526 0 0 0-5.922-3.185c-2.491-.26-4.906 1.483-6.176 1.483-1.294 0-3.249-1.457-5.354-1.414a7.891 7.891 0 0 0-6.636 4.026c-2.87 4.942-.729 12.205 2.02 16.2 1.375 1.956 2.982 4.14 5.085 4.063 2.058-.085 2.827-1.305 5.31-1.305 2.462 0 3.183 1.305 5.328 1.256 2.208-.036 3.6-1.965 4.927-3.94a16.144 16.144 0 0 0 2.252-4.564 7.057 7.057 0 0 1-4.33-6.492zm-4.052-11.94a7.166 7.166 0 0 0 1.653-5.152 7.368 7.368 0 0 0-4.759 2.45 6.82 6.82 0 0 0-1.697 4.96 6.094 6.094 0 0 0 4.803-2.258zm30.065 22.033h-7.022l-1.687 4.954H50.06l6.651-18.328h3.09l6.652 18.328h-3.025l-1.685-4.954zm-6.295-2.286h5.567l-2.745-8.04h-.076l-2.746 8.04zm25.371.559c0 4.153-2.234 6.82-5.606 6.82a4.559 4.559 0 0 1-4.226-2.337h-.064v6.619h-2.757V30.629h2.669v2.222h.05a4.77 4.77 0 0 1 4.277-2.362c3.41 0 5.657 2.68 5.657 6.822zm-2.834 0c0-2.705-1.406-4.483-3.55-4.483-2.106 0-3.523 1.816-3.523 4.484 0 2.692 1.417 4.495 3.523 4.495 2.144 0 3.55-1.765 3.55-4.495zm17.618 0c0 4.153-2.234 6.82-5.606 6.82a4.559 4.559 0 0 1-4.226-2.337h-.064v6.619H82.95V30.629h2.669v2.222h.05a4.77 4.77 0 0 1 4.278-2.362c3.409 0 5.656 2.68 5.656 6.822zm-2.834 0c0-2.705-1.405-4.483-3.55-4.483-2.106 0-3.523 1.816-3.523 4.484 0 2.692 1.417 4.495 3.523 4.495 2.145 0 3.55-1.765 3.55-4.495zm12.605 1.575c.204 1.817 1.98 3.01 4.404 3.01 2.324 0 3.996-1.193 3.996-2.832 0-1.422-1.008-2.274-3.396-2.858l-2.387-.572c-3.384-.813-4.954-2.387-4.954-4.94 0-3.163 2.77-5.335 6.704-5.335 3.893 0 6.562 2.172 6.651 5.334h-2.783c-.166-1.829-1.686-2.933-3.907-2.933s-3.741 1.117-3.741 2.743c0 1.296.97 2.058 3.345 2.642l2.03.496c3.78.889 5.35 2.4 5.35 5.08 0 3.429-2.745 5.577-7.112 5.577-4.086 0-6.844-2.098-7.022-5.413h2.822zm17.263-11.418v3.162h2.554V32.8h-2.554v7.366c0 1.145.511 1.678 1.634 1.678a8.66 8.66 0 0 0 .907-.063v2.159a7.61 7.61 0 0 1-1.531.126c-2.72 0-3.78-1.016-3.78-3.607V32.8h-1.953v-2.17h1.953v-3.162h2.77zm4.033 9.843c0-4.204 2.49-6.845 6.371-6.845 3.895 0 6.372 2.641 6.372 6.846 0 4.215-2.464 6.846-6.372 6.846-3.906 0-6.37-2.63-6.37-6.846zm9.934 0c0-2.883-1.329-4.586-3.563-4.586s-3.561 1.716-3.561 4.587c0 2.895 1.327 4.584 3.561 4.584s3.563-1.689 3.563-4.584zm5.082-6.681h2.63v2.274h.064a3.201 3.201 0 0 1 3.23-2.414c.319-.001.635.033.945.102v2.566a3.873 3.873 0 0 0-1.238-.166 2.786 2.786 0 0 0-2.148.88 2.755 2.755 0 0 0-.725 2.194v7.926h-2.758V30.63zm19.582 9.437c-.371 2.426-2.746 4.09-5.784 4.09-3.908 0-6.333-2.604-6.333-6.782 0-4.191 2.438-6.91 6.217-6.91 3.716 0 6.053 2.54 6.053 6.592v.94h-9.487v.165a3.47 3.47 0 0 0 .948 2.704 3.508 3.508 0 0 0 2.666 1.08 3.04 3.04 0 0 0 3.102-1.879h2.618zm-9.32-3.988h6.715a3.204 3.204 0 0 0-.903-2.411 3.239 3.239 0 0 0-2.392-.98 3.41 3.41 0 0 0-2.42.987 3.374 3.374 0 0 0-1 2.404zM55.199 12.044a4.007 4.007 0 0 1 3.128 1.169 3.68 3.68 0 0 1 1.043 3.067c0 2.723-1.53 4.288-4.171 4.288h-3.202v-8.524h3.202zm-1.825 7.319h1.671a2.845 2.845 0 0 0 2.22-.864 2.612 2.612 0 0 0 .704-2.202 2.62 2.62 0 0 0-.715-2.187 2.852 2.852 0 0 0-2.209-.861h-1.671v6.114zm7.552-2.013c-.115-1.154.46-2.27 1.483-2.88a3.277 3.277 0 0 1 3.343 0c1.023.61 1.598 1.726 1.484 2.88.116 1.153-.458 2.271-1.483 2.883a3.278 3.278 0 0 1-3.345 0c-1.025-.612-1.6-1.73-1.482-2.884zm4.951 0c0-1.395-.651-2.21-1.794-2.21-1.148 0-1.794.815-1.794 2.21 0 1.405.646 2.214 1.794 2.214 1.143 0 1.794-.815 1.794-2.215zm9.746 3.218h-1.37l-1.382-4.738h-.105l-1.377 4.738h-1.356l-1.844-6.433h1.339l1.198 4.909h.099l1.375-4.909h1.267l1.376 4.909h.104l1.193-4.909h1.32zm3.388-6.433h1.27v1.022h.1c.343-.752 1.144-1.212 1.996-1.146a2.223 2.223 0 0 1 1.756.661 2.04 2.04 0 0 1 .56 1.732v4.164h-1.32v-3.845c0-1.034-.468-1.548-1.444-1.548a1.567 1.567 0 0 0-1.189.462 1.44 1.44 0 0 0-.409 1.168v3.763h-1.32v-6.433zm7.785-2.511h1.32v8.944h-1.32zm3.156 5.726c-.114-1.154.46-2.27 1.484-2.88a3.278 3.278 0 0 1 3.343 0c1.023.61 1.598 1.726 1.484 2.88.117 1.153-.458 2.271-1.483 2.883a3.278 3.278 0 0 1-3.346 0c-1.024-.612-1.599-1.73-1.482-2.884zm4.952 0c0-1.395-.651-2.21-1.795-2.21-1.147 0-1.793.815-1.793 2.21 0 1.405.646 2.214 1.793 2.214 1.144 0 1.795-.815 1.795-2.215zm2.749 1.399c0-1.158.896-1.825 2.488-1.92l1.812-.1v-.556c0-.68-.467-1.063-1.37-1.063-.736 0-1.247.26-1.394.715h-1.278c.135-1.105 1.216-1.814 2.734-1.814 1.677 0 2.623.803 2.623 2.162v4.395h-1.271v-.904h-.105a2.277 2.277 0 0 1-2.01 1.01 2.074 2.074 0 0 1-1.558-.487 1.911 1.911 0 0 1-.671-1.438zm4.3-.55v-.537l-1.633.1c-.922.06-1.34.36-1.34.928 0 .579.523.916 1.24.916a1.62 1.62 0 0 0 1.177-.35c.327-.265.527-.647.556-1.057zm3.05-.849c0-2.034 1.087-3.321 2.777-3.321.853-.038 1.653.402 2.052 1.128h.098v-3.533h1.32v8.944h-1.265v-1.016h-.104a2.343 2.343 0 0 1-2.101 1.122c-1.702 0-2.777-1.287-2.777-3.325zm1.364 0c0 1.363.669 2.184 1.787 2.184 1.113 0 1.8-.832 1.8-2.18 0-1.34-.694-2.185-1.8-2.185-1.111 0-1.787.827-1.787 2.18zm10.346 0c-.115-1.154.46-2.27 1.484-2.88a3.277 3.277 0 0 1 3.342 0c1.024.61 1.599 1.726 1.484 2.88.117 1.153-.457 2.271-1.482 2.883a3.278 3.278 0 0 1-3.346 0c-1.024-.612-1.599-1.73-1.482-2.884zm4.952 0c0-1.395-.651-2.21-1.795-2.21-1.147 0-1.793.815-1.793 2.21 0 1.405.646 2.214 1.793 2.214 1.144 0 1.795-.815 1.795-2.215zm3.13-3.215h1.27v1.022h.1c.342-.752 1.144-1.212 1.996-1.146a2.223 2.223 0 0 1 1.756.661 2.04 2.04 0 0 1 .56 1.732v4.164h-1.321v-3.845c0-1.034-.467-1.548-1.444-1.548a1.567 1.567 0 0 0-1.188.462 1.44 1.44 0 0 0-.41 1.168v3.763h-1.32v-6.433zm13.142-1.601v1.63h1.45v1.07h-1.45v3.308c0 .674.289.969.946.969.168 0 .336-.01.503-.03v1.058a4.5 4.5 0 0 1-.718.065c-1.468 0-2.053-.497-2.053-1.737v-3.633h-1.062v-1.07h1.062v-1.63h1.322zm3.253-.91h1.308v3.545h.105c.36-.759 1.175-1.22 2.04-1.152a2.25 2.25 0 0 1 1.738.678c.446.464.653 1.094.566 1.72v4.153h-1.322v-3.84c0-1.027-.498-1.548-1.43-1.548a1.599 1.599 0 0 0-1.237.44 1.47 1.47 0 0 0-.448 1.191v3.757h-1.32v-8.944zm13.455 7.207c-.37 1.214-1.591 1.998-2.899 1.861a3.097 3.097 0 0 1-2.344-.972 2.848 2.848 0 0 1-.746-2.348 2.891 2.891 0 0 1 .745-2.357 3.141 3.141 0 0 1 2.34-1.004c1.861 0 2.984 1.223 2.984 3.243v.443h-4.724v.071c-.042.478.128.95.467 1.3.34.351.817.548 1.315.543a1.623 1.623 0 0 0 1.591-.78h1.271zm-4.644-2.073h3.38a1.517 1.517 0 0 0-.44-1.184 1.647 1.647 0 0 0-1.208-.482 1.747 1.747 0 0 0-1.231.482c-.326.314-.507.74-.501 1.184z" fill="#FFF" fill-rule="nonzero"/></g></svg>